{
	"patcher" : 	{
		"fileversion" : 1,
		"rect" : [ 321.0, 253.0, 640.0, 480.0 ],
		"bglocked" : 0,
		"defrect" : [ 321.0, 253.0, 640.0, 480.0 ],
		"openrect" : [ 0.0, 0.0, 0.0, 0.0 ],
		"openinpresentation" : 0,
		"default_fontsize" : 12.0,
		"default_fontface" : 0,
		"default_fontname" : "Arial",
		"gridonopen" : 0,
		"gridsize" : [ 15.0, 15.0 ],
		"gridsnaponopen" : 0,
		"toolbarvisible" : 1,
		"boxanimatetime" : 200,
		"imprint" : 0,
		"enablehscroll" : 1,
		"enablevscroll" : 1,
		"devicewidth" : 0.0,
		"boxes" : [ 			{
				"box" : 				{
					"maxclass" : "comment",
					"text" : "L'amplitude de la Source controle l'amplitude du Générateur",
					"linecount" : 4,
					"fontsize" : 12.0,
					"patching_rect" : [ 172.0, 221.0, 105.0, 62.0 ],
					"numinlets" : 1,
					"numoutlets" : 0,
					"id" : "obj-12",
					"fontname" : "Arial",
					"presentation_rect" : [ 45.0, 228.0, 0.0, 0.0 ]
				}

			}
, 			{
				"box" : 				{
					"maxclass" : "comment",
					"text" : "On double le filtre pour le rendre plus \"edgy\"",
					"linecount" : 4,
					"fontsize" : 12.0,
					"patching_rect" : [ 482.0, 184.0, 75.0, 62.0 ],
					"numinlets" : 1,
					"numoutlets" : 0,
					"id" : "obj-4",
					"fontname" : "Arial"
				}

			}
, 			{
				"box" : 				{
					"maxclass" : "comment",
					"text" : "Abstraction pour le patch du  Vocodeur",
					"fontface" : 1,
					"fontsize" : 14.0,
					"patching_rect" : [ 288.0, 338.0, 274.0, 23.0 ],
					"numinlets" : 1,
					"numoutlets" : 0,
					"id" : "obj-3",
					"fontname" : "Arial"
				}

			}
, 			{
				"box" : 				{
					"maxclass" : "newobj",
					"text" : "f",
					"fontsize" : 12.0,
					"patching_rect" : [ 516.0, 91.0, 32.5, 20.0 ],
					"numinlets" : 2,
					"numoutlets" : 1,
					"id" : "obj-21",
					"fontname" : "Arial",
					"outlettype" : [ "float" ]
				}

			}
, 			{
				"box" : 				{
					"maxclass" : "newobj",
					"text" : "r resonance",
					"fontsize" : 12.0,
					"patching_rect" : [ 516.0, 60.0, 74.0, 20.0 ],
					"numinlets" : 0,
					"numoutlets" : 1,
					"id" : "obj-11",
					"fontname" : "Arial",
					"outlettype" : [ "" ]
				}

			}
, 			{
				"box" : 				{
					"maxclass" : "newobj",
					"text" : "receive~ gen",
					"fontsize" : 12.0,
					"patching_rect" : [ 382.0, 60.0, 80.0, 20.0 ],
					"numinlets" : 1,
					"numoutlets" : 1,
					"id" : "obj-15",
					"fontname" : "Arial",
					"outlettype" : [ "signal" ]
				}

			}
, 			{
				"box" : 				{
					"maxclass" : "newobj",
					"text" : "receive~ source",
					"fontsize" : 12.0,
					"patching_rect" : [ 133.0, 60.0, 96.0, 20.0 ],
					"numinlets" : 1,
					"numoutlets" : 1,
					"id" : "obj-20",
					"fontname" : "Arial",
					"outlettype" : [ "signal" ]
				}

			}
, 			{
				"box" : 				{
					"maxclass" : "newobj",
					"text" : "r pour[avg~]",
					"fontsize" : 12.0,
					"patching_rect" : [ 40.0, 130.0, 75.0, 20.0 ],
					"numinlets" : 0,
					"numoutlets" : 1,
					"id" : "obj-5",
					"fontname" : "Arial",
					"outlettype" : [ "" ]
				}

			}
, 			{
				"box" : 				{
					"maxclass" : "newobj",
					"text" : "* 100.",
					"fontsize" : 12.0,
					"patching_rect" : [ 133.0, 208.0, 42.0, 20.0 ],
					"numinlets" : 2,
					"numoutlets" : 1,
					"id" : "obj-19",
					"fontname" : "Arial",
					"outlettype" : [ "float" ]
				}

			}
, 			{
				"box" : 				{
					"maxclass" : "comment",
					"text" : "Générateur",
					"fontsize" : 12.0,
					"patching_rect" : [ 383.0, 35.0, 69.0, 20.0 ],
					"numinlets" : 1,
					"numoutlets" : 0,
					"id" : "obj-18",
					"fontname" : "Arial"
				}

			}
, 			{
				"box" : 				{
					"maxclass" : "comment",
					"text" : "Source",
					"fontsize" : 12.0,
					"patching_rect" : [ 152.0, 35.0, 49.0, 20.0 ],
					"numinlets" : 1,
					"numoutlets" : 0,
					"id" : "obj-17",
					"fontname" : "Arial"
				}

			}
, 			{
				"box" : 				{
					"maxclass" : "message",
					"text" : "$1 5",
					"fontsize" : 12.0,
					"patching_rect" : [ 133.0, 242.0, 34.0, 18.0 ],
					"numinlets" : 2,
					"numoutlets" : 1,
					"id" : "obj-16",
					"fontname" : "Arial",
					"outlettype" : [ "" ]
				}

			}
, 			{
				"box" : 				{
					"maxclass" : "newobj",
					"text" : "line~",
					"fontsize" : 12.0,
					"patching_rect" : [ 133.0, 266.0, 36.0, 20.0 ],
					"numinlets" : 2,
					"numoutlets" : 2,
					"id" : "obj-14",
					"fontname" : "Arial",
					"outlettype" : [ "signal", "bang" ]
				}

			}
, 			{
				"box" : 				{
					"maxclass" : "newobj",
					"text" : "*~",
					"fontsize" : 12.0,
					"patching_rect" : [ 133.0, 310.0, 32.5, 20.0 ],
					"numinlets" : 2,
					"numoutlets" : 1,
					"id" : "obj-13",
					"fontname" : "Arial",
					"outlettype" : [ "signal" ]
				}

			}
, 			{
				"box" : 				{
					"maxclass" : "newobj",
					"text" : "reson~ 1. #1 50",
					"fontsize" : 12.0,
					"patching_rect" : [ 383.0, 219.0, 94.0, 20.0 ],
					"numinlets" : 4,
					"numoutlets" : 1,
					"id" : "obj-9",
					"fontname" : "Arial",
					"outlettype" : [ "signal" ]
				}

			}
, 			{
				"box" : 				{
					"maxclass" : "newobj",
					"text" : "reson~ 1. #1 50",
					"fontsize" : 12.0,
					"patching_rect" : [ 383.0, 188.0, 94.0, 20.0 ],
					"numinlets" : 4,
					"numoutlets" : 1,
					"id" : "obj-10",
					"fontname" : "Arial",
					"outlettype" : [ "signal" ]
				}

			}
, 			{
				"box" : 				{
					"maxclass" : "newobj",
					"text" : "avg~",
					"fontsize" : 12.0,
					"patching_rect" : [ 133.0, 177.0, 37.0, 20.0 ],
					"numinlets" : 1,
					"numoutlets" : 1,
					"id" : "obj-8",
					"fontname" : "Arial",
					"outlettype" : [ "float" ]
				}

			}
, 			{
				"box" : 				{
					"maxclass" : "outlet",
					"patching_rect" : [ 133.0, 344.0, 25.0, 25.0 ],
					"numinlets" : 1,
					"numoutlets" : 0,
					"id" : "obj-7",
					"comment" : ""
				}

			}
, 			{
				"box" : 				{
					"maxclass" : "comment",
					"text" : "Résonnace des filtres",
					"fontsize" : 12.0,
					"patching_rect" : [ 512.0, 35.0, 126.0, 20.0 ],
					"numinlets" : 1,
					"numoutlets" : 0,
					"id" : "obj-6",
					"fontname" : "Arial"
				}

			}
, 			{
				"box" : 				{
					"maxclass" : "newobj",
					"text" : "reson~ 1. #1 50",
					"fontsize" : 12.0,
					"patching_rect" : [ 133.0, 140.0, 94.0, 20.0 ],
					"numinlets" : 4,
					"numoutlets" : 1,
					"id" : "obj-2",
					"fontname" : "Arial",
					"outlettype" : [ "signal" ]
				}

			}
, 			{
				"box" : 				{
					"maxclass" : "newobj",
					"text" : "reson~ 1. #1 50",
					"fontsize" : 12.0,
					"patching_rect" : [ 133.0, 109.0, 94.0, 20.0 ],
					"numinlets" : 4,
					"numoutlets" : 1,
					"id" : "obj-1",
					"fontname" : "Arial",
					"outlettype" : [ "signal" ]
				}

			}
 ],
		"lines" : [ 			{
				"patchline" : 				{
					"source" : [ "obj-21", 0 ],
					"destination" : [ "obj-1", 3 ],
					"hidden" : 0,
					"midpoints" : [  ]
				}

			}
, 			{
				"patchline" : 				{
					"source" : [ "obj-21", 0 ],
					"destination" : [ "obj-2", 3 ],
					"hidden" : 0,
					"midpoints" : [  ]
				}

			}
, 			{
				"patchline" : 				{
					"source" : [ "obj-21", 0 ],
					"destination" : [ "obj-9", 3 ],
					"hidden" : 0,
					"midpoints" : [  ]
				}

			}
, 			{
				"patchline" : 				{
					"source" : [ "obj-21", 0 ],
					"destination" : [ "obj-10", 3 ],
					"hidden" : 0,
					"midpoints" : [  ]
				}

			}
, 			{
				"patchline" : 				{
					"source" : [ "obj-11", 0 ],
					"destination" : [ "obj-21", 0 ],
					"hidden" : 0,
					"midpoints" : [  ]
				}

			}
, 			{
				"patchline" : 				{
					"source" : [ "obj-15", 0 ],
					"destination" : [ "obj-10", 0 ],
					"hidden" : 0,
					"midpoints" : [  ]
				}

			}
, 			{
				"patchline" : 				{
					"source" : [ "obj-20", 0 ],
					"destination" : [ "obj-1", 0 ],
					"hidden" : 0,
					"midpoints" : [  ]
				}

			}
, 			{
				"patchline" : 				{
					"source" : [ "obj-1", 0 ],
					"destination" : [ "obj-2", 0 ],
					"hidden" : 0,
					"midpoints" : [  ]
				}

			}
, 			{
				"patchline" : 				{
					"source" : [ "obj-2", 0 ],
					"destination" : [ "obj-8", 0 ],
					"hidden" : 0,
					"midpoints" : [  ]
				}

			}
, 			{
				"patchline" : 				{
					"source" : [ "obj-10", 0 ],
					"destination" : [ "obj-9", 0 ],
					"hidden" : 0,
					"midpoints" : [  ]
				}

			}
, 			{
				"patchline" : 				{
					"source" : [ "obj-9", 0 ],
					"destination" : [ "obj-13", 1 ],
					"hidden" : 0,
					"midpoints" : [  ]
				}

			}
, 			{
				"patchline" : 				{
					"source" : [ "obj-16", 0 ],
					"destination" : [ "obj-14", 0 ],
					"hidden" : 0,
					"midpoints" : [  ]
				}

			}
, 			{
				"patchline" : 				{
					"source" : [ "obj-14", 0 ],
					"destination" : [ "obj-13", 0 ],
					"hidden" : 0,
					"midpoints" : [  ]
				}

			}
, 			{
				"patchline" : 				{
					"source" : [ "obj-8", 0 ],
					"destination" : [ "obj-19", 0 ],
					"hidden" : 0,
					"midpoints" : [  ]
				}

			}
, 			{
				"patchline" : 				{
					"source" : [ "obj-13", 0 ],
					"destination" : [ "obj-7", 0 ],
					"hidden" : 0,
					"midpoints" : [  ]
				}

			}
, 			{
				"patchline" : 				{
					"source" : [ "obj-19", 0 ],
					"destination" : [ "obj-16", 0 ],
					"hidden" : 0,
					"midpoints" : [  ]
				}

			}
, 			{
				"patchline" : 				{
					"source" : [ "obj-5", 0 ],
					"destination" : [ "obj-8", 0 ],
					"hidden" : 0,
					"midpoints" : [  ]
				}

			}
 ]
	}

}
